<svg width="225" height="225" viewBox="0 0 225 225" fill="none" xmlns="http://www.w3.org/2000/svg">
<path d="M95 165L183.125 76.875L165.625 59.375L95 130L59.375 94.375L41.875 111.875L95 165ZM25 225C18.125 225 12.2396 222.552 7.34375 217.656C2.44792 212.76 0 206.875 0 200V25C0 18.125 2.44792 12.2396 7.34375 7.34375C12.2396 2.44792 18.125 0 25 0H200C206.875 0 212.76 2.44792 217.656 7.34375C222.552 12.2396 225 18.125 225 25V200C225 206.875 222.552 212.76 217.656 217.656C212.76 222.552 206.875 225 200 225H25Z" fill="#011638"/>
</svg>
